<svg width="104" height="15" viewBox="0 0 104 15" fill="none" xmlns="http://www.w3.org/2000/svg">
<path d="M7.5 0L9.18386 5.18237H14.6329L10.2245 8.38525L11.9084 13.5676L7.5 10.3647L3.09161 13.5676L4.77547 8.38525L0.367076 5.18237H5.81614L7.5 0Z" fill="#FFF84E"/>
<path d="M31.5 0L33.1839 5.18237H38.6329L34.2245 8.38525L35.9084 13.5676L31.5 10.3647L27.0916 13.5676L28.7755 8.38525L24.3671 5.18237H29.8161L31.5 0Z" fill="#FFF84E"/>
<path d="M55.5 0L57.1839 5.18237H62.6329L58.2245 8.38525L59.9084 13.5676L55.5 10.3647L51.0916 13.5676L52.7755 8.38525L48.3671 5.18237H53.8161L55.5 0Z" fill="#FFF84E"/>
<path d="M79.5 0L81.1839 5.18237H86.6329L82.2245 8.38525L83.9084 13.5676L79.5 10.3647L75.0916 13.5676L76.7755 8.38525L72.3671 5.18237H77.8161L79.5 0Z" fill="#FFF84E"/>
<path d="M103.5 0L103.5 5.18237V7.5L103.5 10.3647L99.0917 13.5676L100.776 8.38525L96.3672 5.18237H101.816L103.5 0Z" fill="#FFF84E"/>
</svg>
